<svg id="レイヤー_1" data-name="レイヤー 1" xmlns="http://www.w3.org/2000/svg" viewBox="0 0 102.58 23.65">
  <defs>
    <style>
    .cls-1 {
      fill: #fff;
    }

    .cls-2 {
      fill: #e549ea;
    }

    .cls-2,
    .cls-3 {
      fill-rule: evenodd;
    }

    .cls-3 {
      fill: #a849ec;
    }
    </style>
  </defs>
  <path id="Combined-Shape" class="cls-1" d="M43,41.51v1.14H35.8V41.51c2.41-.13,2.6-1,3.62-3.75l3.27-8.82c1.19-3.08,1.52-4.53,1.52-5.74,0-.81-.26-1.73-1.62-1.76V20.36A11.57,11.57,0,0,0,48.47,19h.64l7.13,19.08c1,2.71,1.08,3.18,2.84,3.42v1.14H48.77V41.51c2.31-.13,2.44-1,1.59-3.21l-.94-2.64H41.85L41,38.13C40.23,40.39,40.46,41.35,43,41.51Zm5.85-7.34L45.5,24.82l-3.18,9.35Z" transform="translate(0 -19.01)" />
  <path id="Combined-Shape-2" data-name="Combined-Shape" class="cls-1" d="M95.75,30.15c4.53.51,6.83,2.74,6.83,5.68,0,4.12-3.79,6.82-10.58,6.82H82.61V41.51c2.3-.17,2.3-.55,2.3-4.41v-12c0-3.86,0-4.2-2.3-4.37V19.55h9C97,19.55,101,21,101,25.12,101,27.59,99.54,29.18,95.75,30.15ZM92.68,41.4c2.8,0,4.42-2,4.42-5a5,5,0,0,0-5.33-5.27H90.21v7.44C90.21,41.42,92.09,41.4,92.68,41.4ZM90.21,20.9v9h1.32a4,4,0,0,0,4.19-4.35C95.72,22.62,93.79,20.9,90.21,20.9Z" transform="translate(0 -19.01)" />
  <path id="Combined-Shape-3" data-name="Combined-Shape" class="cls-1" d="M80.48,26.34c0,4.59-3.55,7.43-11.49,7.43V37.1c0,3.86,0,4.2,3,4.37h0v1.18H61.39V41.51c2.3-.17,2.3-.51,2.3-4.37v-12c0-2,0-3-.31-3.61a1,1,0,0,0-.31-.36,3.23,3.23,0,0,0-1.66-.39h0V19.55h8.88C76.39,19.55,80.48,21.64,80.48,26.34ZM69,32.42c4.12,0,6.22-1.83,6.22-5.37S72.94,21,69,20.9Z" transform="translate(0 -19.01)" />
  <polygon id="Fill-9" class="cls-2" points="21.94 6.32 24.25 0.55 6.93 0.55 0 17.87 10.39 17.87 15.01 6.32 21.94 6.32" />
  <polygon id="Fill-12" class="cls-3" points="21.94 6.32 17.32 17.87 10.39 17.87 8.08 23.65 25.41 23.65 32.34 6.32 21.94 6.32" />
</svg>